<svg width="20" height="20" viewBox="0 0 20 20" fill="none" xmlns="http://www.w3.org/2000/svg">
<path d="M17.7142 9.135C18.1092 9.65166 18.1092 10.3492 17.7142 10.865C16.47 12.4892 13.4851 15.8333 10.0001 15.8333C6.51505 15.8333 3.53005 12.4892 2.28588 10.865C2.0937 10.6176 1.98938 10.3133 1.98938 10C1.98938 9.68673 2.0937 9.38239 2.28588 9.135C3.53005 7.51083 6.51505 4.16666 10.0001 4.16666C13.4851 4.16666 16.47 7.51083 17.7142 9.135V9.135Z" stroke="#A7A7A7" stroke-width="2" stroke-linecap="round" stroke-linejoin="round"/>
<path d="M10 12.5C11.3807 12.5 12.5 11.3807 12.5 10C12.5 8.61929 11.3807 7.5 10 7.5C8.61929 7.5 7.5 8.61929 7.5 10C7.5 11.3807 8.61929 12.5 10 12.5Z" stroke="#A7A7A7" stroke-width="2" stroke-linecap="round" stroke-linejoin="round"/>
</svg>
