<svg width="372" height="153" viewBox="0 0 372 153" fill="none" xmlns="http://www.w3.org/2000/svg">
<g opacity="0.571429" filter="url(#filter0_f_1231_2249)">
<path d="M355.443 109.362H15.8213C10.3969 109.362 6 104.968 6 99.5481V16.1057C6 10.686 10.3969 6.29297 15.8213 6.29297H355.443C360.867 6.29297 365.264 10.686 365.264 16.1057V99.5481C365.264 104.968 360.867 109.362 355.443 109.362Z" fill="#D9DFEC"/>
</g>
<g opacity="0.823529">
<path d="M357.915 106.069H18.2932C12.8688 106.069 8.47192 101.675 8.47192 96.2551V12.8127C8.47192 7.39305 12.8688 3 18.2932 3H357.915C363.339 3 367.736 7.39305 367.736 12.8127V96.2551C367.736 101.675 363.339 106.069 357.915 106.069Z" fill="#F8F8FD"/>
<path d="M339.673 75.9065H119.601C117.437 75.9065 115.683 74.1537 115.683 71.9918V65.1042C115.683 62.9422 117.437 61.1895 119.601 61.1895H339.673C341.837 61.1895 343.591 62.9422 343.591 65.1042V71.9918C343.591 74.1537 341.837 75.9065 339.673 75.9065Z" fill="#DFE2EB"/>
<path d="M268.809 47.8772H119.601C117.437 47.8772 115.683 46.1244 115.683 43.9625V37.0749C115.683 34.9129 117.437 33.1602 119.601 33.1602H268.809C270.973 33.1602 272.727 34.9129 272.727 37.0749V43.9625C272.727 46.1244 270.973 47.8772 268.809 47.8772Z" fill="#DFE2EB"/>
<path d="M81.2236 33.4248H43.9368V82.1106H81.2236C83.7236 82.1106 85.7498 80.0853 85.7498 77.5891V37.9463C85.7498 35.4484 83.7236 33.4248 81.2236 33.4248Z" fill="#C3C5D3"/>
<path d="M53.4655 33.4248H43.9368V82.1106H53.4655V33.4248Z" fill="#B4B7C1"/>
<path d="M79.6968 31.4961H45.4653V80.1819H79.6968C82.1968 80.1819 84.223 78.1566 84.223 75.6596V36.0184C84.223 33.5206 82.1968 31.4961 79.6968 31.4961Z" fill="white"/>
<path d="M77.7259 28.6035H43.9377V77.2893H77.7259C80.2259 77.2893 82.2521 75.2657 82.2521 72.767V33.1258C82.2521 30.6288 80.2259 28.6035 77.7259 28.6035Z" fill="#CFD2DD"/>
<path d="M53.4655 28.6035H43.9368V77.2893H53.4655V28.6035Z" fill="#B4B7C1"/>
<path d="M75.6453 45.8247H59.6926V38.6934H75.6453V45.8247Z" fill="white"/>
</g>
<g filter="url(#filter1_f_1231_2249)">
<path d="M303.231 130.765L272.257 100.097C285.487 81.4393 283.75 55.4337 267.022 38.7203C248.34 20.0551 218.053 20.0558 199.372 38.7203C180.691 57.3854 180.691 87.647 199.372 106.312C216.002 122.927 241.821 124.738 260.47 111.773L291.496 142.49C294.736 145.728 299.991 145.728 303.231 142.49C306.473 139.252 306.473 134.003 303.231 130.765ZM208.176 97.5155C194.358 83.7082 194.357 61.3235 208.177 47.5169C221.995 33.7103 244.399 33.7096 258.218 47.5162C272.036 61.3228 272.036 83.7082 258.218 97.5155C244.399 111.323 221.995 111.322 208.176 97.5155Z" fill="#6E809D" fill-opacity="0.25"/>
</g>
<path d="M214.402 38.5319C200.583 52.3385 200.583 74.7233 214.402 88.5299C228.221 102.336 250.625 102.337 264.444 88.5299C278.262 74.7233 278.262 52.3385 264.444 38.5319C250.625 24.7247 228.221 24.7254 214.402 38.5319Z" fill="#FFD3D3" fill-opacity="0.25"/>
<path d="M211.864 52.2995C211.691 52.2995 211.514 52.2636 211.346 52.1868C210.714 51.9007 210.435 51.1571 210.721 50.5261C211.261 49.3373 211.88 48.1721 212.563 47.0622C212.926 46.4719 213.7 46.2881 214.291 46.6509C214.882 47.0138 215.066 47.7872 214.703 48.3774C214.075 49.3975 213.505 50.4694 213.009 51.5628C212.799 52.0258 212.342 52.2995 211.864 52.2995Z" fill="white"/>
<path d="M263.758 46.8234C263.373 46.8234 262.994 46.6479 262.747 46.3155C261.895 45.1661 260.946 44.0658 259.925 43.0471C255.209 38.3344 249.218 35.4607 242.601 34.7357C241.911 34.6604 241.414 34.0397 241.49 33.3507C241.566 32.6616 242.182 32.1619 242.876 32.2394C249.964 33.0155 256.65 36.2244 261.702 41.2716C262.809 42.3781 263.839 43.5724 264.765 44.8212C265.178 45.3783 265.061 46.1641 264.503 46.5767C264.278 46.7433 264.017 46.8234 263.758 46.8234Z" fill="white"/>
<path d="M266.211 78.8424C266.015 78.8424 265.815 78.7961 265.628 78.698C265.014 78.3759 264.778 77.6164 265.101 77.0026C265.671 75.919 266.176 74.7876 266.602 73.6389C266.844 72.9893 267.566 72.6582 268.217 72.8988C268.868 73.14 269.199 73.8636 268.958 74.5132C268.494 75.7621 267.945 76.993 267.324 78.1713C267.099 78.5984 266.663 78.8424 266.211 78.8424Z" fill="white"/>
<path d="M212.027 77.6227C211.555 77.6227 211.102 77.3552 210.888 76.8998C207.984 70.7108 207.178 63.6067 208.619 56.8973C208.764 56.2193 209.431 55.7887 210.11 55.9332C210.789 56.079 211.221 56.7459 211.075 57.4239C209.748 63.6005 210.49 70.1385 213.164 75.8347C213.457 76.4616 213.188 77.2094 212.56 77.5038C212.387 77.584 212.205 77.6227 212.027 77.6227Z" fill="white"/>
<path d="M309.457 121.781L278.483 91.1125C291.712 72.4549 289.975 46.4493 273.247 29.7359C254.566 11.0708 224.279 11.0714 205.597 29.7359C186.917 48.4011 186.917 78.6626 205.597 97.3277C222.227 113.942 248.046 115.754 266.696 102.788L297.721 133.506C300.962 136.744 306.216 136.744 309.457 133.506C312.698 130.268 312.698 125.019 309.457 121.781ZM214.402 88.5311C200.583 74.7239 200.582 52.3391 214.402 38.5325C228.221 24.726 250.624 24.7253 264.444 38.5318C278.262 52.3384 278.262 74.7239 264.444 88.5311C250.624 102.338 228.221 102.338 214.402 88.5311Z" fill="#3649F9"/>
<defs>
<filter id="filter0_f_1231_2249" x="0" y="0.292969" width="371.264" height="115.068" filterUnits="userSpaceOnUse" color-interpolation-filters="sRGB">
<feFlood flood-opacity="0" result="BackgroundImageFix"/>
<feBlend mode="normal" in="SourceGraphic" in2="BackgroundImageFix" result="shape"/>
<feGaussianBlur stdDeviation="3" result="effect1_foregroundBlur_1231_2249"/>
</filter>
<filter id="filter1_f_1231_2249" x="177.302" y="16.6628" width="136.419" height="136.315" filterUnits="userSpaceOnUse" color-interpolation-filters="sRGB">
<feFlood flood-opacity="0" result="BackgroundImageFix"/>
<feBlend mode="normal" in="SourceGraphic" in2="BackgroundImageFix" result="shape"/>
<feGaussianBlur stdDeviation="4.02946" result="effect1_foregroundBlur_1231_2249"/>
</filter>
</defs>
</svg>
